G75*
G70*
%OFA0B0*%
%FSLAX24Y24*%
%IPPOS*%
%LPD*%
%AMOC8*
5,1,8,0,0,1.08239X$1,22.5*
%
%ADD10C,0.0040*%
%ADD11C,0.0000*%
%ADD12C,0.0140*%
%ADD13C,0.0100*%
%ADD14C,0.0060*%
%ADD15C,0.0050*%
%ADD16C,0.0030*%
%ADD17R,0.0200X0.0050*%
%ADD18C,0.0020*%
%ADD19C,0.0160*%
D10*
X014894Y001946D02*
X014894Y002202D01*
X014979Y002287D01*
X015150Y002287D01*
X015235Y002202D01*
X015235Y001946D01*
X015405Y001946D02*
X014894Y001946D01*
X015235Y002117D02*
X015405Y002287D01*
X015320Y002454D02*
X015405Y002539D01*
X015405Y002710D01*
X015320Y002795D01*
X015235Y002795D01*
X015150Y002710D01*
X015150Y002539D01*
X015064Y002454D01*
X014979Y002454D01*
X014894Y002539D01*
X014894Y002710D01*
X014979Y002795D01*
X014894Y002961D02*
X014894Y003302D01*
X014894Y003132D02*
X015405Y003132D01*
X015844Y003046D02*
X015844Y003217D01*
X015929Y003302D01*
X016014Y003302D01*
X016100Y003217D01*
X016185Y003302D01*
X016270Y003302D01*
X016355Y003217D01*
X016355Y003046D01*
X016270Y002961D01*
X016185Y002795D02*
X015844Y002795D01*
X015929Y002961D02*
X015844Y003046D01*
X016100Y003132D02*
X016100Y003217D01*
X016185Y002795D02*
X016355Y002624D01*
X016185Y002454D01*
X015844Y002454D01*
X015929Y002287D02*
X016014Y002287D01*
X016100Y002202D01*
X016185Y002287D01*
X016270Y002287D01*
X016355Y002202D01*
X016355Y002031D01*
X016270Y001946D01*
X016100Y002117D02*
X016100Y002202D01*
X015929Y002287D02*
X015844Y002202D01*
X015844Y002031D01*
X015929Y001946D01*
X016860Y002023D02*
X016937Y001946D01*
X017091Y001946D01*
X017167Y002023D01*
X017167Y002176D01*
X017091Y002253D01*
X017014Y002253D01*
X016860Y002176D01*
X016860Y002407D01*
X017167Y002407D01*
X017321Y002407D02*
X017321Y002100D01*
X017474Y001946D01*
X017628Y002100D01*
X017628Y002407D01*
X018060Y002330D02*
X018060Y002023D01*
X018137Y001946D01*
X018291Y001946D01*
X018367Y002023D01*
X018367Y002176D01*
X018214Y002176D01*
X018367Y002330D02*
X018291Y002407D01*
X018137Y002407D01*
X018060Y002330D01*
X018521Y002407D02*
X018828Y001946D01*
X018828Y002407D01*
X018981Y002407D02*
X019211Y002407D01*
X019288Y002330D01*
X019288Y002023D01*
X019211Y001946D01*
X018981Y001946D01*
X018981Y002407D01*
X018521Y002407D02*
X018521Y001946D01*
X019660Y002100D02*
X019814Y001946D01*
X019967Y002100D01*
X019967Y002407D01*
X020121Y002253D02*
X020197Y002253D01*
X020197Y001946D01*
X020121Y001946D02*
X020274Y001946D01*
X020428Y001946D02*
X020428Y002253D01*
X020658Y002253D01*
X020735Y002176D01*
X020735Y001946D01*
X020197Y002407D02*
X020197Y002483D01*
X019660Y002407D02*
X019660Y002100D01*
X022013Y002041D02*
X022098Y001956D01*
X022268Y001956D01*
X022354Y002041D01*
X022354Y002383D01*
X022013Y002041D01*
X022013Y002383D01*
X022098Y002468D01*
X022268Y002468D01*
X022354Y002383D01*
X023013Y002297D02*
X023183Y002468D01*
X023183Y001956D01*
X023013Y001956D02*
X023354Y001956D01*
X024013Y001931D02*
X024354Y002272D01*
X024354Y002358D01*
X024268Y002443D01*
X024098Y002443D01*
X024013Y002358D01*
X024013Y001931D02*
X024354Y001931D01*
X025013Y002016D02*
X025098Y001931D01*
X025268Y001931D01*
X025354Y002016D01*
X025354Y002102D01*
X025268Y002187D01*
X025183Y002187D01*
X025268Y002187D02*
X025354Y002272D01*
X025354Y002358D01*
X025268Y002443D01*
X025098Y002443D01*
X025013Y002358D01*
X026013Y002212D02*
X026354Y002212D01*
X026268Y001956D02*
X026268Y002468D01*
X026013Y002212D01*
X027013Y002212D02*
X027183Y002297D01*
X027268Y002297D01*
X027354Y002212D01*
X027354Y002041D01*
X027268Y001956D01*
X027098Y001956D01*
X027013Y002041D01*
X027013Y002212D02*
X027013Y002468D01*
X027354Y002468D01*
X018674Y005001D02*
X018367Y005001D01*
X018214Y005001D02*
X018061Y005155D01*
X018137Y005155D02*
X017907Y005155D01*
X017907Y005001D02*
X017907Y005462D01*
X018137Y005462D01*
X018214Y005385D01*
X018214Y005232D01*
X018137Y005155D01*
X018367Y005308D02*
X018521Y005462D01*
X018521Y005001D01*
X023507Y009931D02*
X023507Y010161D01*
X023583Y010238D01*
X023737Y010238D01*
X023814Y010161D01*
X023814Y009931D01*
X023967Y009931D02*
X023507Y009931D01*
X023814Y010084D02*
X023967Y010238D01*
X023967Y010391D02*
X023890Y010391D01*
X023583Y010698D01*
X023507Y010698D01*
X023507Y010391D01*
X027957Y012951D02*
X027957Y013412D01*
X028187Y013412D01*
X028264Y013335D01*
X028264Y013182D01*
X028187Y013105D01*
X027957Y013105D01*
X028111Y013105D02*
X028264Y012951D01*
X028417Y013028D02*
X028494Y012951D01*
X028648Y012951D01*
X028724Y013028D01*
X028724Y013105D01*
X028648Y013182D01*
X028494Y013182D01*
X028417Y013258D01*
X028417Y013335D01*
X028494Y013412D01*
X028648Y013412D01*
X028724Y013335D01*
X028724Y013258D01*
X028648Y013182D01*
X028494Y013182D02*
X028417Y013105D01*
X028417Y013028D01*
X028417Y013701D02*
X028724Y013701D01*
X028571Y013701D02*
X028571Y014162D01*
X028417Y014008D01*
X028264Y013932D02*
X028187Y013855D01*
X027957Y013855D01*
X028111Y013855D02*
X028264Y013701D01*
X028264Y013932D02*
X028264Y014085D01*
X028187Y014162D01*
X027957Y014162D01*
X027957Y013701D01*
X027957Y014451D02*
X027957Y014912D01*
X028187Y014912D01*
X028264Y014835D01*
X028264Y014682D01*
X028187Y014605D01*
X027957Y014605D01*
X028111Y014605D02*
X028264Y014451D01*
X028417Y014451D02*
X028724Y014451D01*
X028571Y014451D02*
X028571Y014912D01*
X028417Y014758D01*
X028878Y014682D02*
X029185Y014682D01*
X029108Y014912D02*
X029108Y014451D01*
X029185Y014162D02*
X028878Y014162D01*
X028878Y013932D01*
X029031Y014008D01*
X029108Y014008D01*
X029185Y013932D01*
X029185Y013778D01*
X029108Y013701D01*
X028954Y013701D01*
X028878Y013778D01*
X028878Y014682D02*
X029108Y014912D01*
X027817Y014951D02*
X027357Y014951D01*
X027357Y015182D01*
X027433Y015258D01*
X027587Y015258D01*
X027664Y015182D01*
X027664Y014951D01*
X027664Y015105D02*
X027817Y015258D01*
X027817Y015412D02*
X027817Y015719D01*
X027817Y015565D02*
X027357Y015565D01*
X027510Y015412D01*
X027167Y015412D02*
X027167Y015719D01*
X027167Y015565D02*
X026707Y015565D01*
X026860Y015412D01*
X026783Y015258D02*
X026937Y015258D01*
X027014Y015182D01*
X027014Y014951D01*
X027167Y014951D02*
X026707Y014951D01*
X026707Y015182D01*
X026783Y015258D01*
X027014Y015105D02*
X027167Y015258D01*
X027090Y015872D02*
X026783Y015872D01*
X026707Y015949D01*
X026707Y016102D01*
X026783Y016179D01*
X027090Y015872D01*
X027167Y015949D01*
X027167Y016102D01*
X027090Y016179D01*
X026783Y016179D01*
X027357Y016102D02*
X027357Y015949D01*
X027433Y015872D01*
X027587Y016026D02*
X027587Y016102D01*
X027664Y016179D01*
X027740Y016179D01*
X027817Y016102D01*
X027817Y015949D01*
X027740Y015872D01*
X027587Y016102D02*
X027510Y016179D01*
X027433Y016179D01*
X027357Y016102D01*
X025167Y015679D02*
X025167Y015372D01*
X024860Y015679D01*
X024783Y015679D01*
X024707Y015602D01*
X024707Y015449D01*
X024783Y015372D01*
X024707Y015065D02*
X025167Y015065D01*
X025167Y014912D02*
X025167Y015219D01*
X024860Y014912D02*
X024707Y015065D01*
X024467Y015088D02*
X024467Y015242D01*
X024390Y015319D01*
X024237Y015319D01*
X024160Y015242D01*
X024160Y015165D01*
X024237Y015012D01*
X024007Y015012D01*
X024007Y015319D01*
X024390Y015012D02*
X024467Y015088D01*
X024467Y014858D02*
X024314Y014705D01*
X024314Y014782D02*
X024314Y014551D01*
X024467Y014551D02*
X024007Y014551D01*
X024007Y014782D01*
X024083Y014858D01*
X024237Y014858D01*
X024314Y014782D01*
X024707Y014682D02*
X024783Y014758D01*
X024937Y014758D01*
X025014Y014682D01*
X025014Y014451D01*
X025167Y014451D02*
X024707Y014451D01*
X024707Y014682D01*
X025014Y014605D02*
X025167Y014758D01*
X023417Y014858D02*
X023264Y014705D01*
X023264Y014782D02*
X023264Y014551D01*
X023417Y014551D02*
X022957Y014551D01*
X022957Y014782D01*
X023033Y014858D01*
X023187Y014858D01*
X023264Y014782D01*
X023340Y015012D02*
X023417Y015088D01*
X023417Y015242D01*
X023340Y015319D01*
X023264Y015319D01*
X023187Y015242D01*
X023187Y015012D01*
X023340Y015012D01*
X023187Y015012D02*
X023033Y015165D01*
X022957Y015319D01*
X022467Y015242D02*
X022007Y015242D01*
X022237Y015012D01*
X022237Y015319D01*
X022237Y014858D02*
X022083Y014858D01*
X022007Y014782D01*
X022007Y014551D01*
X022467Y014551D01*
X022314Y014551D02*
X022314Y014782D01*
X022237Y014858D01*
X022314Y014705D02*
X022467Y014858D01*
X021417Y015551D02*
X020957Y015551D01*
X020957Y015782D01*
X021033Y015858D01*
X021187Y015858D01*
X021264Y015782D01*
X021264Y015551D01*
X021264Y015705D02*
X021417Y015858D01*
X021340Y016012D02*
X021417Y016088D01*
X021417Y016242D01*
X021340Y016319D01*
X021264Y016319D01*
X021187Y016242D01*
X021187Y016165D01*
X021187Y016242D02*
X021110Y016319D01*
X021033Y016319D01*
X020957Y016242D01*
X020957Y016088D01*
X021033Y016012D01*
X021185Y018896D02*
X021185Y019152D01*
X021271Y019237D01*
X021356Y019237D01*
X021441Y019152D01*
X021441Y018981D01*
X021356Y018896D01*
X021185Y018896D01*
X021015Y019067D01*
X020930Y019237D01*
X020466Y018896D02*
X020381Y018896D01*
X020040Y019237D01*
X019955Y019237D01*
X019955Y018896D01*
X018841Y019031D02*
X018756Y018946D01*
X018671Y018946D01*
X018585Y019031D01*
X018585Y019202D01*
X018671Y019287D01*
X018756Y019287D01*
X018841Y019202D01*
X018841Y019031D01*
X018585Y019031D02*
X018500Y018946D01*
X018415Y018946D01*
X018330Y019031D01*
X018330Y019202D01*
X018415Y019287D01*
X018500Y019287D01*
X018585Y019202D01*
X018016Y019202D02*
X017931Y019287D01*
X017590Y019287D01*
X017505Y019202D01*
X017505Y019031D01*
X017590Y018946D01*
X017675Y018946D01*
X017760Y019031D01*
X017760Y019287D01*
X018016Y019202D02*
X018016Y019031D01*
X017931Y018946D01*
X016841Y019039D02*
X016756Y018954D01*
X016415Y019295D01*
X016756Y019295D01*
X016841Y019210D01*
X016841Y019039D01*
X016756Y018954D02*
X016415Y018954D01*
X016330Y019039D01*
X016330Y019210D01*
X016415Y019295D01*
X015841Y019295D02*
X015841Y018954D01*
X015841Y018787D02*
X015841Y018446D01*
X015841Y018617D02*
X015330Y018617D01*
X015500Y018446D01*
X015500Y018954D02*
X015330Y019124D01*
X015841Y019124D01*
X016330Y018617D02*
X016841Y018617D01*
X016841Y018787D02*
X016841Y018446D01*
X016500Y018446D02*
X016330Y018617D01*
X014866Y018617D02*
X014355Y018617D01*
X014525Y018446D01*
X014866Y018446D02*
X014866Y018787D01*
X014866Y018954D02*
X014525Y019295D01*
X014440Y019295D01*
X014355Y019210D01*
X014355Y019039D01*
X014440Y018954D01*
X014866Y018954D02*
X014866Y019295D01*
X013841Y019210D02*
X013841Y019039D01*
X013756Y018954D01*
X013841Y018787D02*
X013841Y018446D01*
X013841Y018617D02*
X013330Y018617D01*
X013500Y018446D01*
X013415Y018954D02*
X013330Y019039D01*
X013330Y019210D01*
X013415Y019295D01*
X013500Y019295D01*
X013585Y019210D01*
X013671Y019295D01*
X013756Y019295D01*
X013841Y019210D01*
X013585Y019210D02*
X013585Y019124D01*
X012835Y018996D02*
X012835Y019252D01*
X012749Y019337D01*
X012408Y019337D01*
X012323Y019252D01*
X012323Y018996D01*
X012835Y018996D01*
X012835Y018830D02*
X012323Y018830D01*
X012323Y018489D02*
X012835Y018830D01*
X012835Y018489D02*
X012323Y018489D01*
X012408Y018322D02*
X012323Y018237D01*
X012323Y018066D01*
X012408Y017981D01*
X012749Y017981D01*
X012835Y018066D01*
X012835Y018237D01*
X012749Y018322D01*
X012579Y018322D01*
X012579Y018152D01*
X011835Y018114D02*
X011323Y018114D01*
X011323Y018370D01*
X011408Y018455D01*
X011579Y018455D01*
X011664Y018370D01*
X011664Y018114D01*
X011664Y018284D02*
X011835Y018455D01*
X011835Y018621D02*
X011323Y018621D01*
X011323Y018962D01*
X011323Y019129D02*
X011323Y019470D01*
X011579Y019299D02*
X011579Y019129D01*
X011835Y019129D02*
X011323Y019129D01*
X011579Y018792D02*
X011579Y018621D01*
X011835Y018621D02*
X011835Y018962D01*
X011835Y017947D02*
X011494Y017947D01*
X011323Y017777D01*
X011494Y017606D01*
X011835Y017606D01*
X011579Y017606D02*
X011579Y017947D01*
X015107Y017242D02*
X015107Y017088D01*
X015183Y017012D01*
X015260Y017012D01*
X015337Y017088D01*
X015337Y017319D01*
X015490Y017319D02*
X015183Y017319D01*
X015107Y017242D01*
X015490Y017319D02*
X015567Y017242D01*
X015567Y017088D01*
X015490Y017012D01*
X015567Y016858D02*
X015414Y016705D01*
X015414Y016782D02*
X015414Y016551D01*
X015567Y016551D02*
X015107Y016551D01*
X015107Y016782D01*
X015183Y016858D01*
X015337Y016858D01*
X015414Y016782D01*
X012231Y013512D02*
X012231Y013051D01*
X012078Y013051D02*
X012385Y013051D01*
X012078Y013358D02*
X012231Y013512D01*
X011771Y013512D02*
X011771Y013051D01*
X011827Y012962D02*
X011673Y012962D01*
X011597Y012885D01*
X011443Y012885D02*
X011443Y012732D01*
X011366Y012655D01*
X011136Y012655D01*
X011136Y012501D02*
X011136Y012962D01*
X011366Y012962D01*
X011443Y012885D01*
X011464Y013051D02*
X011311Y013205D01*
X011387Y013205D02*
X011157Y013205D01*
X011157Y013051D02*
X011157Y013512D01*
X011387Y013512D01*
X011464Y013435D01*
X011464Y013282D01*
X011387Y013205D01*
X011617Y013358D02*
X011771Y013512D01*
X011924Y013051D02*
X011617Y013051D01*
X011827Y012962D02*
X011904Y012885D01*
X011904Y012808D01*
X011597Y012501D01*
X011904Y012501D01*
X011443Y012501D02*
X011290Y012655D01*
X021930Y018896D02*
X022185Y018896D01*
X022100Y019067D01*
X022100Y019152D01*
X022185Y019237D01*
X022356Y019237D01*
X022441Y019152D01*
X022441Y018981D01*
X022356Y018896D01*
X021930Y018896D02*
X021930Y019237D01*
X022955Y019152D02*
X023210Y018896D01*
X023210Y019237D01*
X022955Y019152D02*
X023466Y019152D01*
X023930Y019152D02*
X023930Y018981D01*
X024015Y018896D01*
X024185Y019067D02*
X024185Y019152D01*
X024271Y019237D01*
X024356Y019237D01*
X024441Y019152D01*
X024441Y018981D01*
X024356Y018896D01*
X024185Y019152D02*
X024100Y019237D01*
X024015Y019237D01*
X023930Y019152D01*
X024930Y019152D02*
X024930Y018981D01*
X025015Y018896D01*
X024930Y019152D02*
X025015Y019237D01*
X025100Y019237D01*
X025441Y018896D01*
X025441Y019237D01*
X025930Y019067D02*
X026100Y018896D01*
X025930Y019067D02*
X026441Y019067D01*
X026441Y019237D02*
X026441Y018896D01*
X026955Y018981D02*
X026955Y019152D01*
X027040Y019237D01*
X027381Y018896D01*
X027466Y018981D01*
X027466Y019152D01*
X027381Y019237D01*
X027040Y019237D01*
X026955Y018981D02*
X027040Y018896D01*
X027381Y018896D01*
D11*
X002187Y021181D02*
X002187Y000181D01*
X028187Y000181D01*
X028187Y001181D01*
X029187Y002181D01*
X029187Y015081D01*
X028187Y016081D01*
X028187Y020581D01*
X027587Y021181D01*
X002187Y021181D01*
X005122Y011611D02*
X005124Y011641D01*
X005130Y011671D01*
X005139Y011700D01*
X005152Y011727D01*
X005169Y011752D01*
X005188Y011775D01*
X005211Y011796D01*
X005236Y011813D01*
X005262Y011827D01*
X005291Y011837D01*
X005320Y011844D01*
X005350Y011847D01*
X005381Y011846D01*
X005411Y011841D01*
X005440Y011832D01*
X005467Y011820D01*
X005493Y011805D01*
X005517Y011786D01*
X005538Y011764D01*
X005556Y011740D01*
X005571Y011713D01*
X005582Y011685D01*
X005590Y011656D01*
X005594Y011626D01*
X005594Y011596D01*
X005590Y011566D01*
X005582Y011537D01*
X005571Y011509D01*
X005556Y011482D01*
X005538Y011458D01*
X005517Y011436D01*
X005493Y011417D01*
X005467Y011402D01*
X005440Y011390D01*
X005411Y011381D01*
X005381Y011376D01*
X005350Y011375D01*
X005320Y011378D01*
X005291Y011385D01*
X005262Y011395D01*
X005236Y011409D01*
X005211Y011426D01*
X005188Y011447D01*
X005169Y011470D01*
X005152Y011495D01*
X005139Y011522D01*
X005130Y011551D01*
X005124Y011581D01*
X005122Y011611D01*
X005043Y001847D02*
X005045Y001882D01*
X005051Y001917D01*
X005061Y001951D01*
X005074Y001984D01*
X005091Y002015D01*
X005112Y002043D01*
X005135Y002070D01*
X005162Y002093D01*
X005190Y002114D01*
X005221Y002131D01*
X005254Y002144D01*
X005288Y002154D01*
X005323Y002160D01*
X005358Y002162D01*
X005393Y002160D01*
X005428Y002154D01*
X005462Y002144D01*
X005495Y002131D01*
X005526Y002114D01*
X005554Y002093D01*
X005581Y002070D01*
X005604Y002043D01*
X005625Y002015D01*
X005642Y001984D01*
X005655Y001951D01*
X005665Y001917D01*
X005671Y001882D01*
X005673Y001847D01*
X005671Y001812D01*
X005665Y001777D01*
X005655Y001743D01*
X005642Y001710D01*
X005625Y001679D01*
X005604Y001651D01*
X005581Y001624D01*
X005554Y001601D01*
X005526Y001580D01*
X005495Y001563D01*
X005462Y001550D01*
X005428Y001540D01*
X005393Y001534D01*
X005358Y001532D01*
X005323Y001534D01*
X005288Y001540D01*
X005254Y001550D01*
X005221Y001563D01*
X005190Y001580D01*
X005162Y001601D01*
X005135Y001624D01*
X005112Y001651D01*
X005091Y001679D01*
X005074Y001710D01*
X005061Y001743D01*
X005051Y001777D01*
X005045Y001812D01*
X005043Y001847D01*
X025425Y010152D02*
X025427Y010180D01*
X025433Y010208D01*
X025442Y010234D01*
X025455Y010260D01*
X025471Y010283D01*
X025491Y010303D01*
X025513Y010321D01*
X025537Y010336D01*
X025563Y010347D01*
X025590Y010355D01*
X025618Y010359D01*
X025646Y010359D01*
X025674Y010355D01*
X025701Y010347D01*
X025727Y010336D01*
X025751Y010321D01*
X025773Y010303D01*
X025793Y010283D01*
X025809Y010260D01*
X025822Y010234D01*
X025831Y010208D01*
X025837Y010180D01*
X025839Y010152D01*
X025837Y010124D01*
X025831Y010096D01*
X025822Y010070D01*
X025809Y010044D01*
X025793Y010021D01*
X025773Y010001D01*
X025751Y009983D01*
X025727Y009968D01*
X025701Y009957D01*
X025674Y009949D01*
X025646Y009945D01*
X025618Y009945D01*
X025590Y009949D01*
X025563Y009957D01*
X025537Y009968D01*
X025513Y009983D01*
X025491Y010001D01*
X025471Y010021D01*
X025455Y010044D01*
X025442Y010070D01*
X025433Y010096D01*
X025427Y010124D01*
X025425Y010152D01*
X026542Y011210D02*
X026544Y011234D01*
X026550Y011257D01*
X026559Y011279D01*
X026572Y011299D01*
X026587Y011317D01*
X026606Y011332D01*
X026627Y011344D01*
X026649Y011352D01*
X026672Y011357D01*
X026696Y011358D01*
X026720Y011355D01*
X026742Y011348D01*
X026764Y011338D01*
X026784Y011325D01*
X026801Y011308D01*
X026815Y011289D01*
X026826Y011268D01*
X026834Y011245D01*
X026838Y011222D01*
X026838Y011198D01*
X026834Y011175D01*
X026826Y011152D01*
X026815Y011131D01*
X026801Y011112D01*
X026784Y011095D01*
X026764Y011082D01*
X026742Y011072D01*
X026720Y011065D01*
X026696Y011062D01*
X026672Y011063D01*
X026649Y011068D01*
X026627Y011076D01*
X026606Y011088D01*
X026587Y011103D01*
X026572Y011121D01*
X026559Y011141D01*
X026550Y011163D01*
X026544Y011186D01*
X026542Y011210D01*
D12*
X009662Y014191D02*
X009382Y014191D01*
X009288Y014285D01*
X009288Y014472D01*
X009382Y014565D01*
X009662Y014565D01*
X009662Y014752D02*
X009662Y014191D01*
X009045Y014191D02*
X008858Y014191D01*
X008952Y014191D02*
X008952Y014752D01*
X008858Y014752D01*
X008588Y014472D02*
X008588Y014378D01*
X008214Y014378D01*
X008214Y014285D02*
X008214Y014472D01*
X008307Y014565D01*
X008494Y014565D01*
X008588Y014472D01*
X008494Y014191D02*
X008307Y014191D01*
X008214Y014285D01*
X007971Y014191D02*
X007784Y014191D01*
X007878Y014191D02*
X007878Y014565D01*
X007784Y014565D01*
X007878Y014752D02*
X007878Y014845D01*
X007513Y014472D02*
X007420Y014565D01*
X007233Y014565D01*
X007140Y014472D01*
X007140Y014752D02*
X007140Y014191D01*
X006869Y014285D02*
X006869Y014378D01*
X006775Y014472D01*
X006589Y014472D01*
X006495Y014565D01*
X006495Y014658D01*
X006589Y014752D01*
X006775Y014752D01*
X006869Y014658D01*
X006869Y014285D02*
X006775Y014191D01*
X006589Y014191D01*
X006495Y014285D01*
X005580Y014285D02*
X005486Y014191D01*
X005300Y014191D01*
X005206Y014285D01*
X005393Y014472D02*
X005486Y014472D01*
X005580Y014378D01*
X005580Y014285D01*
X005486Y014472D02*
X005580Y014565D01*
X005580Y014658D01*
X005486Y014752D01*
X005300Y014752D01*
X005206Y014658D01*
X004935Y014658D02*
X004935Y014472D01*
X004842Y014378D01*
X004562Y014378D01*
X004562Y014191D02*
X004562Y014752D01*
X004842Y014752D01*
X004935Y014658D01*
X004291Y014752D02*
X004291Y014191D01*
X003917Y014191D02*
X003917Y014752D01*
X004104Y014565D01*
X004291Y014752D01*
X007513Y014472D02*
X007513Y014191D01*
D13*
X007066Y015635D02*
X004804Y015635D01*
X003954Y015635D02*
X002254Y015635D01*
X002254Y021022D01*
X006554Y021022D02*
X007066Y021022D01*
X007079Y021024D02*
X007079Y017087D01*
X014237Y013904D02*
X014637Y013904D01*
X014637Y013771D02*
X014637Y014038D01*
X014709Y014275D02*
X021709Y014275D01*
X021709Y011275D01*
X014709Y011275D01*
X014709Y014275D01*
X014237Y013904D02*
X014370Y013771D01*
X014237Y013578D02*
X014570Y013578D01*
X014637Y013511D01*
X014637Y013377D01*
X014570Y013311D01*
X014237Y013311D01*
X014818Y011625D02*
X014820Y011648D01*
X014826Y011671D01*
X014835Y011692D01*
X014848Y011712D01*
X014864Y011729D01*
X014882Y011743D01*
X014902Y011754D01*
X014924Y011762D01*
X014947Y011766D01*
X014971Y011766D01*
X014994Y011762D01*
X015016Y011754D01*
X015036Y011743D01*
X015054Y011729D01*
X015070Y011712D01*
X015083Y011692D01*
X015092Y011671D01*
X015098Y011648D01*
X015100Y011625D01*
X015098Y011602D01*
X015092Y011579D01*
X015083Y011558D01*
X015070Y011538D01*
X015054Y011521D01*
X015036Y011507D01*
X015016Y011496D01*
X014994Y011488D01*
X014971Y011484D01*
X014947Y011484D01*
X014924Y011488D01*
X014902Y011496D01*
X014882Y011507D01*
X014864Y011521D01*
X014848Y011538D01*
X014835Y011558D01*
X014826Y011579D01*
X014820Y011602D01*
X014818Y011625D01*
X013248Y002282D02*
X013114Y002282D01*
X013047Y002215D01*
X013047Y001948D01*
X013114Y001881D01*
X013248Y001881D01*
X013314Y001948D01*
X013314Y002215D02*
X013248Y002282D01*
X012230Y002081D02*
X012232Y002134D01*
X012238Y002186D01*
X012248Y002238D01*
X012261Y002289D01*
X012279Y002339D01*
X012300Y002388D01*
X012325Y002435D01*
X012353Y002479D01*
X012384Y002522D01*
X012419Y002562D01*
X012456Y002599D01*
X012496Y002634D01*
X012539Y002665D01*
X012584Y002693D01*
X012630Y002718D01*
X012679Y002739D01*
X012729Y002757D01*
X012780Y002770D01*
X012832Y002780D01*
X012884Y002786D01*
X012937Y002788D01*
X012990Y002786D01*
X013042Y002780D01*
X013094Y002770D01*
X013145Y002757D01*
X013195Y002739D01*
X013244Y002718D01*
X013291Y002693D01*
X013335Y002665D01*
X013378Y002634D01*
X013418Y002599D01*
X013455Y002562D01*
X013490Y002522D01*
X013521Y002479D01*
X013549Y002434D01*
X013574Y002388D01*
X013595Y002339D01*
X013613Y002289D01*
X013626Y002238D01*
X013636Y002186D01*
X013642Y002134D01*
X013644Y002081D01*
X013642Y002028D01*
X013636Y001976D01*
X013626Y001924D01*
X013613Y001873D01*
X013595Y001823D01*
X013574Y001774D01*
X013549Y001727D01*
X013521Y001683D01*
X013490Y001640D01*
X013455Y001600D01*
X013418Y001563D01*
X013378Y001528D01*
X013335Y001497D01*
X013290Y001469D01*
X013244Y001444D01*
X013195Y001423D01*
X013145Y001405D01*
X013094Y001392D01*
X013042Y001382D01*
X012990Y001376D01*
X012937Y001374D01*
X012884Y001376D01*
X012832Y001382D01*
X012780Y001392D01*
X012729Y001405D01*
X012679Y001423D01*
X012630Y001444D01*
X012583Y001469D01*
X012539Y001497D01*
X012496Y001528D01*
X012456Y001563D01*
X012419Y001600D01*
X012384Y001640D01*
X012353Y001683D01*
X012325Y001728D01*
X012300Y001774D01*
X012279Y001823D01*
X012261Y001873D01*
X012248Y001924D01*
X012238Y001976D01*
X012232Y002028D01*
X012230Y002081D01*
X012587Y001948D02*
X012654Y001881D01*
X012787Y001881D01*
X012854Y001948D01*
X012587Y001948D02*
X012587Y002215D01*
X012654Y002282D01*
X012787Y002282D01*
X012854Y002215D01*
X012793Y000998D02*
X012593Y000998D01*
X012526Y000932D01*
X012526Y000798D01*
X012593Y000731D01*
X012793Y000731D01*
X012986Y000798D02*
X013053Y000731D01*
X013186Y000731D01*
X013253Y000798D01*
X013253Y000932D01*
X013186Y000998D01*
X013053Y000998D01*
X012986Y000932D01*
X012986Y000798D01*
X013447Y000731D02*
X013447Y000998D01*
X013513Y000998D01*
X013580Y000932D01*
X013647Y000998D01*
X013714Y000932D01*
X013714Y000731D01*
X013580Y000731D02*
X013580Y000932D01*
X012362Y000798D02*
X012362Y000731D01*
X012296Y000731D01*
X012296Y000798D01*
X012362Y000798D01*
X012112Y000998D02*
X012046Y000998D01*
X011912Y000865D01*
X011912Y000998D02*
X011912Y000731D01*
X011719Y000865D02*
X011719Y000932D01*
X011652Y000998D01*
X011519Y000998D01*
X011452Y000932D01*
X011452Y000798D01*
X011519Y000731D01*
X011652Y000731D01*
X011719Y000865D02*
X011452Y000865D01*
X011278Y000998D02*
X011145Y000998D01*
X011212Y001065D02*
X011212Y000798D01*
X011278Y000731D01*
X010951Y000798D02*
X010885Y000865D01*
X010751Y000865D01*
X010685Y000932D01*
X010751Y000998D01*
X010951Y000998D01*
X010951Y000798D02*
X010885Y000731D01*
X010685Y000731D01*
X010491Y000731D02*
X010491Y000932D01*
X010424Y000998D01*
X010291Y000998D01*
X010291Y000865D02*
X010491Y000865D01*
X010491Y000731D02*
X010291Y000731D01*
X010224Y000798D01*
X010291Y000865D01*
X010031Y000798D02*
X010031Y000932D01*
X009964Y000998D01*
X009831Y000998D01*
X009764Y000932D01*
X009764Y000798D01*
X009831Y000731D01*
X009964Y000731D01*
X010031Y000798D01*
X009590Y000731D02*
X009524Y000798D01*
X009524Y001065D01*
X009457Y000998D02*
X009590Y000998D01*
X009264Y000932D02*
X009264Y000731D01*
X009264Y000932D02*
X009197Y000998D01*
X008997Y000998D01*
X008997Y000731D01*
X008803Y000865D02*
X008803Y000932D01*
X008736Y000998D01*
X008603Y000998D01*
X008536Y000932D01*
X008536Y000798D01*
X008603Y000731D01*
X008736Y000731D01*
X008803Y000865D02*
X008536Y000865D01*
X008353Y000998D02*
X008153Y000865D01*
X008353Y000731D01*
X008153Y000731D02*
X008153Y001132D01*
X007959Y000932D02*
X007892Y000998D01*
X007759Y000998D01*
X007692Y000932D01*
X007692Y000798D01*
X007759Y000731D01*
X007892Y000731D01*
X007959Y000798D01*
X007959Y000932D01*
X007509Y000998D02*
X007442Y000998D01*
X007309Y000865D01*
X007309Y000998D02*
X007309Y000731D01*
X007115Y000798D02*
X007115Y000932D01*
X007048Y000998D01*
X006848Y000998D01*
X006848Y001132D02*
X006848Y000731D01*
X007048Y000731D01*
X007115Y000798D01*
X006685Y000798D02*
X006685Y000731D01*
X006618Y000731D01*
X006618Y000798D01*
X006685Y000798D01*
X006425Y000798D02*
X006425Y000998D01*
X006425Y000798D02*
X006358Y000731D01*
X006291Y000798D01*
X006224Y000731D01*
X006158Y000798D01*
X006158Y000998D01*
X005964Y000998D02*
X005964Y000798D01*
X005898Y000731D01*
X005831Y000798D01*
X005764Y000731D01*
X005697Y000798D01*
X005697Y000998D01*
X005504Y000998D02*
X005504Y000798D01*
X005437Y000731D01*
X005371Y000798D01*
X005304Y000731D01*
X005237Y000798D01*
X005237Y000998D01*
D14*
X012187Y003431D02*
X012437Y003181D01*
X012937Y003181D01*
X013187Y003431D01*
X013187Y003931D01*
X012937Y004181D01*
X012437Y004181D01*
X012187Y004431D01*
X012187Y004931D01*
X012437Y005181D01*
X012937Y005181D01*
X013187Y004931D01*
X013187Y004431D01*
X012937Y004181D01*
X012437Y004181D01*
X012187Y003931D01*
X012187Y003431D01*
X012437Y005181D02*
X012937Y005181D01*
X013187Y005431D01*
X013187Y005931D01*
X012937Y006181D01*
X012437Y006181D01*
X012187Y005931D01*
X012187Y005431D01*
X012437Y005181D01*
X015913Y006729D02*
X015913Y007129D01*
X015913Y006729D02*
X015915Y006712D01*
X015919Y006695D01*
X015926Y006679D01*
X015936Y006665D01*
X015949Y006652D01*
X015963Y006642D01*
X015979Y006635D01*
X015996Y006631D01*
X016013Y006629D01*
X020313Y006629D01*
X020330Y006631D01*
X020347Y006635D01*
X020363Y006642D01*
X020377Y006652D01*
X020390Y006665D01*
X020400Y006679D01*
X020407Y006695D01*
X020411Y006712D01*
X020413Y006729D01*
X020413Y007129D01*
X020413Y008029D02*
X020413Y008429D01*
X020411Y008446D01*
X020407Y008463D01*
X020400Y008479D01*
X020390Y008493D01*
X020377Y008506D01*
X020363Y008516D01*
X020347Y008523D01*
X020330Y008527D01*
X020313Y008529D01*
X016013Y008529D01*
X015996Y008527D01*
X015979Y008523D01*
X015963Y008516D01*
X015949Y008506D01*
X015936Y008493D01*
X015926Y008479D01*
X015919Y008463D01*
X015915Y008446D01*
X015913Y008429D01*
X015913Y008029D01*
X017913Y007829D02*
X017913Y007579D01*
X017913Y007329D01*
X018063Y007329D02*
X018263Y007329D01*
X018263Y007829D01*
X018063Y007829D01*
X018063Y007329D01*
X018413Y007329D02*
X018413Y007579D01*
X018413Y007829D01*
X018687Y001431D02*
X018687Y000931D01*
X017687Y000931D02*
X017687Y001431D01*
X016687Y001431D02*
X016687Y000931D01*
X015687Y000931D02*
X015687Y001431D01*
X014687Y001431D02*
X014687Y000931D01*
X019687Y000931D02*
X019687Y001431D01*
X020687Y001431D02*
X020687Y000931D01*
X021687Y000931D02*
X021687Y001431D01*
X022687Y001431D02*
X022687Y000931D01*
X023687Y000931D02*
X023687Y001431D01*
X024687Y001431D02*
X024687Y000931D01*
X025687Y000931D02*
X025687Y001431D01*
X026687Y001431D02*
X026687Y000931D01*
X027687Y000931D02*
X027687Y001431D01*
X009837Y016081D02*
X009837Y016231D01*
X009687Y016231D01*
X009837Y016231D02*
X009837Y016381D01*
X009837Y016231D02*
X009987Y016231D01*
X008087Y016831D02*
X008089Y016897D01*
X008095Y016962D01*
X008105Y017027D01*
X008118Y017092D01*
X008136Y017155D01*
X008157Y017218D01*
X008182Y017278D01*
X008211Y017338D01*
X008243Y017395D01*
X008278Y017451D01*
X008317Y017504D01*
X008359Y017555D01*
X008403Y017603D01*
X008451Y017648D01*
X008501Y017691D01*
X008554Y017730D01*
X008609Y017767D01*
X008666Y017800D01*
X008725Y017829D01*
X008785Y017855D01*
X008847Y017877D01*
X008910Y017896D01*
X008974Y017910D01*
X009039Y017921D01*
X009105Y017928D01*
X009171Y017931D01*
X009236Y017930D01*
X009302Y017925D01*
X009367Y017916D01*
X009432Y017903D01*
X009495Y017887D01*
X009558Y017867D01*
X009619Y017842D01*
X009679Y017815D01*
X009737Y017784D01*
X009793Y017749D01*
X009847Y017711D01*
X009898Y017670D01*
X009947Y017626D01*
X009993Y017579D01*
X010037Y017530D01*
X010077Y017478D01*
X010114Y017423D01*
X010148Y017367D01*
X010178Y017308D01*
X010205Y017248D01*
X010228Y017187D01*
X010247Y017124D01*
X010263Y017060D01*
X010275Y016995D01*
X010283Y016930D01*
X010287Y016864D01*
X010287Y016798D01*
X010283Y016732D01*
X010275Y016667D01*
X010263Y016602D01*
X010247Y016538D01*
X010228Y016475D01*
X010205Y016414D01*
X010178Y016354D01*
X010148Y016295D01*
X010114Y016239D01*
X010077Y016184D01*
X010037Y016132D01*
X009993Y016083D01*
X009947Y016036D01*
X009898Y015992D01*
X009847Y015951D01*
X009793Y015913D01*
X009737Y015878D01*
X009679Y015847D01*
X009619Y015820D01*
X009558Y015795D01*
X009495Y015775D01*
X009432Y015759D01*
X009367Y015746D01*
X009302Y015737D01*
X009236Y015732D01*
X009171Y015731D01*
X009105Y015734D01*
X009039Y015741D01*
X008974Y015752D01*
X008910Y015766D01*
X008847Y015785D01*
X008785Y015807D01*
X008725Y015833D01*
X008666Y015862D01*
X008609Y015895D01*
X008554Y015932D01*
X008501Y015971D01*
X008451Y016014D01*
X008403Y016059D01*
X008359Y016107D01*
X008317Y016158D01*
X008278Y016211D01*
X008243Y016267D01*
X008211Y016324D01*
X008182Y016384D01*
X008157Y016444D01*
X008136Y016507D01*
X008118Y016570D01*
X008105Y016635D01*
X008095Y016700D01*
X008089Y016765D01*
X008087Y016831D01*
X009837Y018881D02*
X009837Y019031D01*
X009687Y019031D01*
X009837Y019031D02*
X009837Y019181D01*
X009837Y019031D02*
X009987Y019031D01*
X008087Y019631D02*
X008089Y019697D01*
X008095Y019762D01*
X008105Y019827D01*
X008118Y019892D01*
X008136Y019955D01*
X008157Y020018D01*
X008182Y020078D01*
X008211Y020138D01*
X008243Y020195D01*
X008278Y020251D01*
X008317Y020304D01*
X008359Y020355D01*
X008403Y020403D01*
X008451Y020448D01*
X008501Y020491D01*
X008554Y020530D01*
X008609Y020567D01*
X008666Y020600D01*
X008725Y020629D01*
X008785Y020655D01*
X008847Y020677D01*
X008910Y020696D01*
X008974Y020710D01*
X009039Y020721D01*
X009105Y020728D01*
X009171Y020731D01*
X009236Y020730D01*
X009302Y020725D01*
X009367Y020716D01*
X009432Y020703D01*
X009495Y020687D01*
X009558Y020667D01*
X009619Y020642D01*
X009679Y020615D01*
X009737Y020584D01*
X009793Y020549D01*
X009847Y020511D01*
X009898Y020470D01*
X009947Y020426D01*
X009993Y020379D01*
X010037Y020330D01*
X010077Y020278D01*
X010114Y020223D01*
X010148Y020167D01*
X010178Y020108D01*
X010205Y020048D01*
X010228Y019987D01*
X010247Y019924D01*
X010263Y019860D01*
X010275Y019795D01*
X010283Y019730D01*
X010287Y019664D01*
X010287Y019598D01*
X010283Y019532D01*
X010275Y019467D01*
X010263Y019402D01*
X010247Y019338D01*
X010228Y019275D01*
X010205Y019214D01*
X010178Y019154D01*
X010148Y019095D01*
X010114Y019039D01*
X010077Y018984D01*
X010037Y018932D01*
X009993Y018883D01*
X009947Y018836D01*
X009898Y018792D01*
X009847Y018751D01*
X009793Y018713D01*
X009737Y018678D01*
X009679Y018647D01*
X009619Y018620D01*
X009558Y018595D01*
X009495Y018575D01*
X009432Y018559D01*
X009367Y018546D01*
X009302Y018537D01*
X009236Y018532D01*
X009171Y018531D01*
X009105Y018534D01*
X009039Y018541D01*
X008974Y018552D01*
X008910Y018566D01*
X008847Y018585D01*
X008785Y018607D01*
X008725Y018633D01*
X008666Y018662D01*
X008609Y018695D01*
X008554Y018732D01*
X008501Y018771D01*
X008451Y018814D01*
X008403Y018859D01*
X008359Y018907D01*
X008317Y018958D01*
X008278Y019011D01*
X008243Y019067D01*
X008211Y019124D01*
X008182Y019184D01*
X008157Y019244D01*
X008136Y019307D01*
X008118Y019370D01*
X008105Y019435D01*
X008095Y019500D01*
X008089Y019565D01*
X008087Y019631D01*
X011087Y019931D02*
X011087Y020431D01*
X012087Y020431D02*
X012087Y019931D01*
X013087Y019931D02*
X013087Y020431D01*
X014087Y020431D02*
X014087Y019931D01*
X015087Y019931D02*
X015087Y020431D01*
X016087Y020431D02*
X016087Y019931D01*
X017087Y019931D02*
X017087Y020431D01*
X018087Y020431D02*
X018087Y019931D01*
X019087Y019931D02*
X019087Y020431D01*
X019687Y020431D02*
X019687Y019931D01*
X020687Y019931D02*
X020687Y020431D01*
X021687Y020431D02*
X021687Y019931D01*
X022687Y019931D02*
X022687Y020431D01*
X023687Y020431D02*
X023687Y019931D01*
X024687Y019931D02*
X024687Y020431D01*
X025687Y020431D02*
X025687Y019931D01*
X026687Y019931D02*
X026687Y020431D01*
X027687Y020431D02*
X027687Y019931D01*
D15*
X010971Y018767D02*
X010971Y018692D01*
X010896Y018617D01*
X010746Y018617D01*
X010671Y018692D01*
X010671Y018767D01*
X010746Y018842D01*
X010896Y018842D01*
X010971Y018767D01*
X010896Y018617D02*
X010971Y018542D01*
X010971Y018466D01*
X010896Y018391D01*
X010746Y018391D01*
X010671Y018466D01*
X010671Y018542D01*
X010746Y018617D01*
X010510Y018767D02*
X010435Y018842D01*
X010285Y018842D01*
X010210Y018767D01*
X010210Y018466D01*
X010285Y018391D01*
X010435Y018391D01*
X010510Y018466D01*
X010516Y016157D02*
X010441Y016082D01*
X010441Y015781D01*
X010516Y015706D01*
X010666Y015706D01*
X010742Y015781D01*
X010902Y015781D02*
X010977Y015706D01*
X011127Y015706D01*
X011202Y015781D01*
X011202Y016082D01*
X011127Y016157D01*
X010977Y016157D01*
X010902Y016082D01*
X010902Y016007D01*
X010977Y015932D01*
X011202Y015932D01*
X010742Y016082D02*
X010666Y016157D01*
X010516Y016157D01*
X014774Y006874D02*
X014924Y006874D01*
X014999Y006799D01*
X014999Y006499D01*
X014924Y006424D01*
X014774Y006424D01*
X014698Y006499D01*
X014698Y006799D01*
X014774Y006874D01*
X014849Y006574D02*
X014999Y006424D01*
X015159Y006424D02*
X015459Y006424D01*
X015309Y006424D02*
X015309Y006874D01*
X015159Y006724D01*
X014368Y005877D02*
X014142Y005877D01*
X014142Y005426D01*
X014142Y005577D02*
X014368Y005577D01*
X014443Y005652D01*
X014443Y005802D01*
X014368Y005877D01*
X013982Y005877D02*
X013982Y005426D01*
X013832Y005577D01*
X013682Y005426D01*
X013682Y005877D01*
X013757Y004877D02*
X013682Y004802D01*
X013682Y004501D01*
X013757Y004426D01*
X013907Y004426D01*
X013982Y004501D01*
X014142Y004426D02*
X014142Y004877D01*
X014293Y004727D01*
X014443Y004877D01*
X014443Y004426D01*
X014603Y004426D02*
X014603Y004877D01*
X014903Y004426D01*
X014903Y004877D01*
X013982Y004802D02*
X013907Y004877D01*
X013757Y004877D01*
X013757Y003877D02*
X013682Y003802D01*
X013682Y003501D01*
X013757Y003426D01*
X013907Y003426D01*
X013982Y003501D01*
X014142Y003426D02*
X014368Y003426D01*
X014443Y003501D01*
X014443Y003802D01*
X014368Y003877D01*
X014142Y003877D01*
X014142Y003426D01*
X013982Y003802D02*
X013907Y003877D01*
X013757Y003877D01*
D16*
X016202Y005108D02*
X016264Y005046D01*
X016387Y005046D01*
X016449Y005108D01*
X016570Y005046D02*
X016817Y005046D01*
X016694Y005046D02*
X016694Y005417D01*
X016570Y005293D01*
X016449Y005355D02*
X016387Y005417D01*
X016264Y005417D01*
X016202Y005355D01*
X016202Y005108D01*
X019658Y005203D02*
X019720Y005141D01*
X019844Y005141D01*
X019905Y005203D01*
X020027Y005141D02*
X020274Y005388D01*
X020274Y005449D01*
X020212Y005511D01*
X020088Y005511D01*
X020027Y005449D01*
X019905Y005449D02*
X019844Y005511D01*
X019720Y005511D01*
X019658Y005449D01*
X019658Y005203D01*
X020027Y005141D02*
X020274Y005141D01*
X016966Y016453D02*
X017028Y016514D01*
X017028Y016638D01*
X016966Y016700D01*
X016966Y016821D02*
X017028Y016883D01*
X017028Y017006D01*
X016966Y017068D01*
X016904Y017068D01*
X016842Y017006D01*
X016842Y016944D01*
X016842Y017006D02*
X016781Y017068D01*
X016719Y017068D01*
X016657Y017006D01*
X016657Y016883D01*
X016719Y016821D01*
X016719Y016700D02*
X016657Y016638D01*
X016657Y016514D01*
X016719Y016453D01*
X016966Y016453D01*
D17*
X016959Y014270D03*
X016459Y014270D03*
X015959Y014270D03*
X015459Y014270D03*
X014959Y014270D03*
X017459Y014270D03*
X017959Y014270D03*
X018459Y014270D03*
X018959Y014270D03*
X019459Y014270D03*
X019959Y014270D03*
X020459Y014270D03*
X020959Y014270D03*
X021459Y014270D03*
X021459Y011280D03*
X020959Y011280D03*
X020459Y011280D03*
X019959Y011280D03*
X019459Y011280D03*
X018959Y011280D03*
X018459Y011280D03*
X017959Y011280D03*
X017459Y011280D03*
X016959Y011280D03*
X016459Y011280D03*
X015959Y011280D03*
X015459Y011280D03*
X014959Y011280D03*
D18*
X016813Y008379D02*
X019513Y008379D01*
X019513Y008079D02*
X016813Y008079D01*
X016775Y008078D01*
X016738Y008073D01*
X016701Y008066D01*
X016665Y008057D01*
X016629Y008044D01*
X016595Y008029D01*
X016595Y007129D02*
X016629Y007114D01*
X016665Y007101D01*
X016701Y007092D01*
X016738Y007085D01*
X016775Y007080D01*
X016813Y007079D01*
X019513Y007079D01*
X019513Y006779D02*
X016813Y006779D01*
X016757Y006781D01*
X016702Y006787D01*
X016647Y006796D01*
X016593Y006810D01*
X016540Y006827D01*
X016489Y006848D01*
X016439Y006872D01*
X016391Y006900D01*
X016344Y006931D01*
X016301Y006965D01*
X016259Y007002D01*
X016220Y007042D01*
X016184Y007084D01*
X016152Y007129D01*
X016153Y008029D02*
X016185Y008074D01*
X016221Y008116D01*
X016260Y008156D01*
X016301Y008193D01*
X016345Y008227D01*
X016392Y008258D01*
X016440Y008286D01*
X016490Y008310D01*
X016541Y008331D01*
X016594Y008348D01*
X016648Y008362D01*
X016703Y008371D01*
X016758Y008377D01*
X016814Y008379D01*
X017763Y007579D02*
X017913Y007579D01*
X018413Y007579D02*
X018563Y007579D01*
X019513Y006779D02*
X019569Y006781D01*
X019624Y006787D01*
X019679Y006796D01*
X019733Y006810D01*
X019786Y006827D01*
X019837Y006848D01*
X019887Y006872D01*
X019935Y006900D01*
X019982Y006931D01*
X020026Y006965D01*
X020067Y007002D01*
X020106Y007042D01*
X020142Y007084D01*
X020174Y007129D01*
X019731Y008029D02*
X019697Y008044D01*
X019661Y008057D01*
X019625Y008066D01*
X019588Y008073D01*
X019551Y008078D01*
X019513Y008079D01*
X019731Y007129D02*
X019697Y007114D01*
X019661Y007101D01*
X019625Y007092D01*
X019588Y007085D01*
X019551Y007080D01*
X019513Y007079D01*
X020174Y008029D02*
X020142Y008074D01*
X020106Y008116D01*
X020067Y008156D01*
X020025Y008193D01*
X019982Y008227D01*
X019935Y008258D01*
X019887Y008286D01*
X019837Y008310D01*
X019786Y008331D01*
X019733Y008348D01*
X019679Y008362D01*
X019624Y008371D01*
X019569Y008377D01*
X019513Y008379D01*
D19*
X024908Y010542D02*
X025186Y010264D01*
X024908Y010542D02*
X024908Y010821D01*
X025743Y011656D01*
X025882Y011517D01*
X025952Y011586D02*
X025813Y011725D01*
X026022Y011934D01*
X026300Y011934D01*
X026578Y011656D01*
X026022Y011656D02*
X025882Y011795D01*
X025813Y011725D02*
X025743Y011656D01*
X027135Y011099D02*
X027414Y010821D01*
X027414Y010542D01*
X026300Y009429D01*
X026022Y009429D01*
X025743Y009707D01*
M02*
